<svg xmlns="http://www.w3.org/2000/svg" version="1.1" xmlns:xlink="http://www.w3.org/1999/xlink" xmlns:svgjs="http://svgjs.dev/svgjs" width="1000" height="1000" viewBox="0 0 1000 1000"><rect width="1000" height="1000" fill="#fefdfd"></rect><g transform="matrix(0.7,0,0,0.7,150.0000000000001,106.25)"><svg viewBox="0 0 320 360" data-background-color="#fefdfd" preserveAspectRatio="xMidYMid meet" height="1125" width="1000" xmlns="http://www.w3.org/2000/svg" xmlns:xlink="http://www.w3.org/1999/xlink"><g id="tight-bounds" transform="matrix(1,0,0,1,0,0)"><svg viewBox="0 0 320 360" height="360" width="320"><g><svg></svg></g><g><svg viewBox="0 0 320 360" height="360" width="320"><g><path xmlns="http://www.w3.org/2000/svg" d="M20.961 227.22l3.726 4.658-1.863-6.056c-0.466-2.795-3.726 0.466-1.863 1.398M25.153 224.425c1.397 2.329 2.795 4.658 2.795 6.987 0 3.261 2.795 4.658 5.123 5.589-3.261-3.726-5.124-13.974-7.918-12.576M204.017 26.929c7.918 0 15.371-0.932 23.756 0.931 20.495 5.124 37.729 15.371 49.374 29.811l32.606 52.169c1.397 13.042 4.192 27.482 3.726 43.319 3.261 0 2.795-4.658 6.521-5.59-3.726 9.316-5.59 20.961-6.521 34.469-2.329-7.453 0-18.632 0.466-24.687-3.261 5.124-5.124 1.397-5.124-0.932 0.466-3.726-1.397-3.261-2.795-4.658-5.124-4.658-8.384-9.782-12.11-17.7 2.329-6.055 2.795-14.905-4.658-19.563-2.329-1.397-5.124-3.726-6.521-7.453-1.863-5.124-5.124-11.179-4.193-19.097 0.466-2.329-6.987 5.124-11.179 1.863-18.166-12.576-36.332-27.016-58.224-39.127-11.645 0-20.029-4.192-24.221-9.316-3.726-4.658-0.932-10.713 4.658-11.179 3.261 0 6.987-0.932 9.782 0.932 0.466-1.863 2.329-4.192 4.657-4.192M157.904 16.215l0.932 0.466c4.658 0.932 6.987 7.453 12.11 5.124 0 3.261 0.466 6.521-0.466 8.85-1.397 3.726-5.59 3.726-8.85 3.726-31.208-1.863-49.374 11.179-68.471 22.358-5.124 3.261-10.713 5.59-14.906 9.782-20.029 18.632-41.921 35.866-47.045 70.335l-4.192 38.195c-0.466 4.192-5.124 8.384-4.192 13.508l3.26 22.824c-3.261-3.261-5.124 0.932-4.192 2.795 0.466 1.397 2.329 6.055 5.124 1.863 3.726 6.987 7.453 20.495 12.576 26.55 15.837 18.632 36.332 35.4 53.101 52.169 4.192-0.932 7.453-0.932 8.384-3.727 1.397 2.795-1.397 5.59-3.726 6.056 7.453 4.658 15.837 8.85 27.016 9.781 14.44 0.932 27.948 3.261 40.524 6.522 6.521-1.863 13.042-2.795 20.029-3.261 2.329 0 3.726-3.726 6.521-4.658l0.466-4.658c2.795 4.192 2.329-1.397 0.466-4.192 3.261 2.795 4.192 5.124 5.589 6.987 0-1.397 3.726-6.521 3.727-0.466l0.931-6.055c1.397-0.932 1.863 5.124 3.261 0.931 1.397-4.192 4.192-0.932 6.987-2.329-0.932 1.863-0.466 5.59 2.794 3.261l3.727-3.261c2.329 5.59 6.055 3.261 7.918 2.329 20.495-13.042 40.99-28.413 60.553-43.784l-0.466 6.055 2.329-7.453c2.329 2.329 4.192 0.466 5.124-0.931 2.795-4.658 6.521-9.316 12.577-13.508-7.453 20.029-16.303 35.866-27.482 48.908l-4.658 5.59c0 3.261-0.932 7.453-4.658 7.918-1.863 0.466-5.59-0.932-8.384 1.863-1.397 1.863 3.261 5.59-0.466 2.795-3.261-2.329-6.521 0-10.248 0.932-2.795 0.932 1.863 3.726 2.795 5.589 0.932 1.863 1.863 3.726 1.398 6.056l-5.124-5.59c-6.055 3.261-9.782 9.316-14.906 13.974-2.329 1.863-1.397 5.124-1.397 7.918-3.261 0-6.987-0.932-8.85 0.932-1.397 1.863-0.932 4.658-0.932 7.453-4.658-0.466-5.124-7.453-9.315-6.056-4.192 0.932-8.85 1.397-12.577 3.727 2.795 5.59-4.658 2.329-3.726 3.26-6.987-4.192-13.042-7.453-20.495-4.658-15.837-5.124-35.4-2.795-49.84-0.931 0-2.329 0.466-4.658-0.466-5.124-0.932 2.329-3.726 1.397-3.26 1.397-8.85-6.055-17.7-9.782-27.016-14.905-8.384 0.932-16.303-3.261-18.632-5.59-6.521-6.055-13.974-2.795-20.029-4.192-13.042-3.261-17.7-16.769-19.098-26.084-0.932-4.658-4.658-6.521-6.055-6.056-6.055-19.563-15.371-37.263-22.824-55.429-1.863-4.658-1.397-9.316-1.397-14.44 2.329 0.932 4.658 0.466 4.192-2.794-2.329-15.371-7.918-27.016-13.974-38.195 3.261-15.837 3.726-34.469 11.179-48.443 6.521-12.576 18.632-19.098 27.016-29.811 2.795-3.726 2.795-8.85 5.59-12.11 9.316-9.316 18.632-19.098 28.879-27.482 4.658-3.726 10.247 0 17.234-1.397 2.329-8.384 11.645-15.837 20.495-13.508 3.726 0.932 11.179-8.85 13.508-9.782 3.726-1.397 1.863 3.726 1.863 6.987 8.85-6.987 20.961-10.713 32.14-14.906" fill="#f11f99" fill-rule="nonzero" stroke="none" stroke-width="1" stroke-linecap="butt" stroke-linejoin="miter" stroke-miterlimit="10" stroke-dasharray="" stroke-dashoffset="0" font-family="none" font-weight="none" font-size="none" text-anchor="none" style="mix-blend-mode: normal" data-fill-palette-color="tertiary"></path></g><g transform="matrix(1,0,0,1,64,125.29234382978723)"><svg viewBox="0 0 192 109.41531234042553" height="109.41531234042553" width="192"><g><svg viewBox="0 0 192 109.41531234042553" height="109.41531234042553" width="192"><g><svg viewBox="0 0 192 109.41531234042553" height="109.41531234042553" width="192"><g transform="matrix(1,0,0,1,0,66.13263756838906)"><svg viewBox="0 0 192 43.28267477203647" height="43.28267477203647" width="192"><g id="textblocktransform"><svg viewBox="0 0 192 43.28267477203647" height="43.28267477203647" width="192" id="textblock"><g><svg viewBox="0 0 192 43.28267477203647" height="43.28267477203647" width="192"><g transform="matrix(1,0,0,1,0,0)"><svg width="192" viewBox="1.100000023841858 -44 197.37998962402344 44.5" height="43.28267477203647" data-palette-color="#292626"><path d="M23.45 0.5Q22 0.5 20.63-1.25 19.25-3 17.15-6.95L17.15-6.95 12.6-15.7 11.05-6.4Q10.8-4.9 9.9-4.15L9.9-4.15 9.9-4.1Q10.5-3.8 11.8-3.8L11.8-3.8Q12.55-3.8 13.18-4.08 13.8-4.35 14-4.35L14-4.35Q14.4-4.35 14.4-3.9L14.4-3.9Q14.4-3.35 13.85-2.55L13.85-2.55Q12.75-1 11.93-0.45 11.1 0.1 10.15 0.1L10.15 0.1Q9.55 0.1 8.15-0.3L8.15-0.3Q6.75-0.7 5.9-0.7L5.9-0.7Q4.8-0.7 3.85-0.3 2.9 0.1 2.75 0.1L2.75 0.1Q2.4 0.1 2.4-0.5L2.4-0.5Q2.4-1.2 2.8-1.78 3.2-2.35 3.95-3.1L3.95-3.1Q5.05-4.1 5.48-5.13 5.9-6.15 6.3-8.7L6.3-8.7 9.8-30.25Q9.5-30.25 8.58-30.4 7.65-30.55 6.7-30.55L6.7-30.55Q5.25-30.55 4.28-30.15 3.3-29.75 2.5-28.7L2.5-28.7Q2.25-28.35 2-28.13 1.75-27.9 1.5-27.9L1.5-27.9Q1.1-27.9 1.1-28.4L1.1-28.4Q1.1-28.75 1.18-29.05 1.25-29.35 1.25-29.45L1.25-29.45Q1.7-31.7 2.83-32.77 3.95-33.85 5.6-34.15 7.25-34.45 10.05-34.45L10.05-34.45 12.85-34.45Q13.25-34.45 14.9-34.6L14.9-34.6Q15.7-34.7 16.1-34.7L16.1-34.7Q15.25-31.85 14.55-28L14.55-28 13.7-22.5 20.2-30.4Q23.6-34.45 26.1-36.93 28.6-39.4 31.3-41.05L31.3-41.05Q33.65-42.55 35.63-42.98 37.6-43.4 40.3-43.5L40.3-43.5Q41.4-43.5 41.95-43.7L41.95-43.7Q42.3-43.8 42.55-43.9 42.8-44 42.95-44L42.95-44Q43.4-44 43.4-43.45L43.4-43.45Q43.4-42.45 42.25-41.45 41.1-40.45 39.5-40.35L39.5-40.35Q37.7-40.25 36.35-39.83 35-39.4 33.1-38L33.1-38Q29.7-35.5 25.8-30.75L25.8-30.75 16.25-19.2 22.65-7.65Q23.5-6.1 24.05-5.48 24.6-4.85 25.3-4.85L25.3-4.85Q26.2-4.85 26.98-5.7 27.75-6.55 28.25-7.45L28.25-7.45Q28.6-8.05 28.85-8.28 29.1-8.5 29.4-8.5L29.4-8.5Q29.8-8.5 29.8-7.75L29.8-7.75Q29.8-6.35 28.78-4.38 27.75-2.4 26.25-0.95 24.75 0.5 23.45 0.5L23.45 0.5ZM37.55 0.5Q34.95 0.5 33.47-1.28 32-3.05 32-6.25L32-6.25Q32-10 33.92-14.13 35.85-18.25 38.82-21.03 41.8-23.8 44.8-23.8L44.8-23.8Q46.45-23.8 47.42-22.85 48.4-21.9 48.4-20.1L48.4-20.1Q48.4-17.85 46.95-15.48 45.5-13.1 42.97-11.08 40.45-9.05 37.3-7.8L37.3-7.8Q37.45-4.35 40.35-4.35L40.35-4.35Q41.95-4.35 43.37-5.35 44.8-6.35 45.9-8.05L45.9-8.05Q46.15-8.5 46.35-8.72 46.55-8.95 46.75-8.95L46.75-8.95Q47.05-8.95 47.15-8.75 47.25-8.55 47.25-8.05L47.25-8.05Q47.25-6.45 45.82-4.4 44.4-2.35 42.15-0.93 39.9 0.5 37.55 0.5L37.55 0.5ZM38.55-11.9Q39.65-11.9 40.8-12.68 41.95-13.45 42.7-14.7 43.45-15.95 43.45-17.4L43.45-17.4Q43.45-19.2 42-19.2L42-19.2Q40.45-19.2 39.2-17.25 37.95-15.3 37.6-12.05L37.6-12.05Q37.9-11.9 38.55-11.9L38.55-11.9ZM55.65 0.5Q53.05 0.5 51.57-1.28 50.1-3.05 50.1-6.25L50.1-6.25Q50.1-10 52.02-14.13 53.95-18.25 56.92-21.03 59.9-23.8 62.9-23.8L62.9-23.8Q64.55-23.8 65.52-22.85 66.5-21.9 66.5-20.1L66.5-20.1Q66.5-17.85 65.05-15.48 63.6-13.1 61.07-11.08 58.55-9.05 55.4-7.8L55.4-7.8Q55.55-4.35 58.45-4.35L58.45-4.35Q60.05-4.35 61.47-5.35 62.9-6.35 64-8.05L64-8.05Q64.25-8.5 64.45-8.72 64.65-8.95 64.84-8.95L64.84-8.95Q65.15-8.95 65.25-8.75 65.34-8.55 65.34-8.05L65.34-8.05Q65.34-6.45 63.92-4.4 62.5-2.35 60.25-0.93 58 0.5 55.65 0.5L55.65 0.5ZM56.65-11.9Q57.75-11.9 58.9-12.68 60.05-13.45 60.8-14.7 61.55-15.95 61.55-17.4L61.55-17.4Q61.55-19.2 60.1-19.2L60.1-19.2Q58.55-19.2 57.3-17.25 56.05-15.3 55.7-12.05L55.7-12.05Q56-11.9 56.65-11.9L56.65-11.9ZM70.39 0.5Q69.54 0.5 69.54-0.1L69.54-0.1Q69.54-0.35 69.92-1.23 70.29-2.1 70.64-3.95L70.64-3.95 71.49-8.75Q72.84-16.45 72.89-17.75L72.89-17.75 72.89-18.2Q72.89-19.05 72.44-19.05L72.44-19.05Q71.49-19.05 69.84-16L69.84-16Q69.64-15.6 69.39-15.28 69.14-14.95 68.89-14.95L68.89-14.95Q68.39-14.95 68.39-15.8L68.39-15.8Q68.39-17.1 69.57-19.03 70.74-20.95 72.47-22.38 74.19-23.8 75.79-23.8L75.79-23.8Q77.94-23.8 77.94-20.95L77.94-20.95Q77.94-20.35 77.54-16.75L77.54-16.75 77.59-16.75Q79.69-20.45 81.57-22.13 83.44-23.8 85.34-23.8L85.34-23.8Q86.64-23.8 87.44-23.05 88.24-22.3 88.24-20.9L88.24-20.9Q88.24-19.55 87.62-18.25 86.99-16.95 86.09-16.13 85.19-15.3 84.54-15.3L84.54-15.3Q84.14-15.3 84.29-15.8L84.29-15.8Q84.44-16.5 84.44-17.1L84.44-17.1Q84.44-18.4 83.29-18.4L83.29-18.4Q81.39-18.4 79.52-15.8 77.64-13.2 76.59-8.3L76.59-8.3Q75.84-5.2 75.59-3.45L75.59-3.45Q75.34-2.05 73.62-0.78 71.89 0.5 70.39 0.5L70.39 0.5ZM93.94 0.5Q92.29 0.5 91.49-0.55 90.69-1.6 90.69-3.9L90.69-3.9Q90.69-5.35 91.09-7.75L91.09-7.75 93.14-19.45 89.09-19.45Q88.54-19.45 88.32-19.58 88.09-19.7 88.09-19.95L88.09-19.95Q88.09-20.4 88.74-21.2 89.39-22 90.22-22.65 91.04-23.3 91.59-23.3L91.59-23.3 93.89-23.3 94.29-25.9Q94.64-27.75 96.37-29.2 98.09-30.65 99.74-30.65L99.74-30.65Q100.14-30.65 100.39-30.5 100.64-30.35 100.64-30.05L100.64-30.05Q100.64-29.85 100.14-28.98 99.64-28.1 99.39-26.55L99.39-26.55 98.84-23.3 103.09-23.3Q103.69-23.3 103.89-23.23 104.09-23.15 104.09-22.9L104.09-22.9Q104.09-22.4 103.39-21.58 102.69-20.75 101.79-20.1 100.89-19.45 100.44-19.45L100.44-19.45 98.19-19.45 96.19-7.55Q95.84-5.8 95.84-4.85L95.84-4.85Q95.84-4.15 96.07-3.88 96.29-3.6 96.74-3.6L96.74-3.6Q98.39-3.6 99.84-6.3L99.84-6.3Q99.99-6.65 100.14-6.83 100.29-7 100.49-7L100.49-7Q100.99-7 100.99-6.15L100.99-6.15Q100.99-4.85 99.99-3.28 98.99-1.7 97.37-0.6 95.74 0.5 93.94 0.5L93.94 0.5ZM105.09 0.5Q104.29 0.5 104.29 0L104.29 0Q104.29-0.25 104.64-1.4L104.64-1.4Q105.14-2.85 105.29-3.6L105.29-3.6Q105.79-6.25 107.09-14.8L107.09-14.8 108.39-22.9Q109.39-28.85 110.91-32.95 112.44-37.05 114.74-39.6L114.74-39.6Q116.54-41.6 118.21-42.28 119.89-42.95 122.44-43.35L122.44-43.35Q124.04-43.6 124.54-43.73 125.04-43.85 125.19-43.85L125.19-43.85Q125.59-43.85 125.59-43.3L125.59-43.3Q125.59-42.85 125.21-42.23 124.84-41.6 124.29-41.05L124.29-41.05Q123.49-40.3 121.89-40.3L121.89-40.3Q120.34-40.15 119.19-39.45 118.04-38.75 116.99-37.2L116.99-37.2Q115.54-35 114.69-31.53 113.84-28.05 112.94-21.25L112.94-21.25 112.29-16.45 112.34-16.45Q117.59-23.8 121.39-23.8L121.39-23.8Q122.64-23.8 123.29-22.98 123.94-22.15 123.94-20.25L123.94-20.25Q123.94-18.8 123.49-16.45L123.49-16.45Q122.49-11.25 122.04-9.1L122.04-9.1Q121.39-5.55 121.39-5.2L121.39-5.2Q121.39-4.2 122.04-4.2L122.04-4.2Q122.79-4.2 123.44-5.18 124.09-6.15 124.89-8.1L124.89-8.1Q125.14-8.8 125.49-8.8L125.49-8.8Q125.94-8.8 125.94-7.85L125.94-7.85Q125.94-6.1 124.84-4.13 123.74-2.15 122.06-0.83 120.39 0.5 118.74 0.5L118.74 0.5Q116.24 0.5 116.24-2.8L116.24-2.8Q116.24-4.1 116.54-5.95 116.84-7.8 117.44-10.7L117.44-10.7Q117.84-12.65 118.16-14.6 118.49-16.55 118.54-17.75L118.54-17.75 118.54-18.05Q118.54-18.95 117.99-18.95L117.99-18.95Q117.14-18.95 115.66-17.18 114.19-15.4 112.84-12.75 111.49-10.1 111.04-7.65L111.04-7.65 110.24-3.6Q109.89-2.1 108.26-0.8 106.64 0.5 105.09 0.5L105.09 0.5ZM131.69 0.5Q130.14 0.5 129.26-1.05 128.39-2.6 128.39-5.2L128.39-5.2Q128.39-9.35 130.41-13.7 132.44-18.05 135.94-20.93 139.44-23.8 143.49-23.8L143.49-23.8Q144.79-23.8 146.06-23.5 147.34-23.2 148.14-22.75L148.14-22.75Q147.69-21.65 147.54-20.95 147.39-20.25 147.34-20.05L147.34-20.05Q146.99-18.25 146.31-14.58 145.64-10.9 145.04-7.55L145.04-7.55Q144.74-6.05 144.74-5.25L144.74-5.25Q144.74-4.7 144.91-4.45 145.09-4.2 145.44-4.2L145.44-4.2Q146.29-4.2 146.99-5.23 147.69-6.25 148.49-8.1L148.49-8.1Q148.59-8.4 148.74-8.6 148.89-8.8 149.14-8.8L149.14-8.8Q149.59-8.8 149.59-8.1L149.59-8.1Q149.59-7.75 149.54-7.55L149.54-7.55Q149.29-5.65 148.24-3.78 147.19-1.9 145.66-0.7 144.14 0.5 142.54 0.5L142.54 0.5Q141.24 0.5 140.51-0.45 139.79-1.4 139.79-3L139.79-3Q139.79-3.4 139.89-4.2L139.89-4.2 140.14-5.9 140.04-5.9Q138.19-3.1 135.81-1.3 133.44 0.5 131.69 0.5L131.69 0.5ZM134.54-4.45Q135.64-4.45 137.36-6.4 139.09-8.35 140.59-11.33 142.09-14.3 142.59-17.25L142.59-17.25 142.94-19.2Q141.69-19.95 140.64-19.95L140.64-19.95Q139.04-19.95 137.41-17.98 135.79-16 134.76-12.88 133.74-9.75 133.74-6.5L133.74-6.5Q133.74-5.3 133.91-4.88 134.09-4.45 134.54-4.45L134.54-4.45ZM153.93 0.5Q153.13 0.5 153.13-0.05L153.13-0.05Q153.13-0.25 153.38-1.1L153.38-1.1Q153.63-1.75 154.08-3.6L154.08-3.6Q154.43-5.05 155.08-8.85 155.73-12.65 156.28-16.25L156.28-16.25Q156.53-17.85 156.53-18.3L156.53-18.3Q156.53-19.05 156.08-19.05L156.08-19.05Q155.63-19.05 154.93-18.28 154.23-17.5 153.43-16L153.43-16Q153.23-15.6 152.98-15.28 152.73-14.95 152.48-14.95L152.48-14.95Q151.98-14.95 151.98-15.8L151.98-15.8Q151.98-17.15 153.16-19.07 154.33-21 156.06-22.4 157.78-23.8 159.38-23.8L159.38-23.8Q160.38-23.8 160.98-23.1 161.58-22.4 161.58-20.9L161.58-20.9Q161.58-18.95 161.18-16.45L161.18-16.45 161.23-16.45Q166.58-23.8 170.23-23.8L170.23-23.8Q172.78-23.8 172.78-20.25L172.78-20.25Q172.78-18.7 172.33-16.45L172.33-16.45Q171.13-10.6 170.68-8.18 170.23-5.75 170.23-5.25L170.23-5.25Q170.23-4.2 170.83-4.2L170.83-4.2Q172.23-4.2 173.68-8.1L173.68-8.1Q173.98-8.8 174.33-8.8L174.33-8.8Q174.93-8.8 174.83-7.55L174.83-7.55Q174.63-5.8 173.53-3.9 172.43-2 170.81-0.75 169.18 0.5 167.53 0.5L167.53 0.5Q165.08 0.5 165.08-2.8L165.08-2.8Q165.08-4.1 165.38-5.95 165.68-7.8 166.28-10.7L166.28-10.7Q166.68-12.65 167.01-14.6 167.33-16.55 167.38-17.75L167.38-17.75 167.38-18.15Q167.38-18.95 166.88-18.95L166.88-18.95Q166.03-18.95 164.53-17.18 163.03-15.4 161.71-12.75 160.38-10.1 159.88-7.65L159.88-7.65 159.08-3.6Q158.78-2.1 157.16-0.8 155.53 0.5 153.93 0.5L153.93 0.5ZM180.58 0.5Q179.03 0.5 178.16-1.05 177.28-2.6 177.28-5.2L177.28-5.2Q177.28-9.35 179.31-13.7 181.33-18.05 184.83-20.93 188.33-23.8 192.38-23.8L192.38-23.8Q193.68-23.8 194.96-23.5 196.23-23.2 197.03-22.75L197.03-22.75Q196.58-21.65 196.43-20.95 196.28-20.25 196.23-20.05L196.23-20.05Q195.88-18.25 195.21-14.58 194.53-10.9 193.93-7.55L193.93-7.55Q193.63-6.05 193.63-5.25L193.63-5.25Q193.63-4.7 193.81-4.45 193.98-4.2 194.33-4.2L194.33-4.2Q195.18-4.2 195.88-5.23 196.58-6.25 197.38-8.1L197.38-8.1Q197.48-8.4 197.63-8.6 197.78-8.8 198.03-8.8L198.03-8.8Q198.48-8.8 198.48-8.1L198.48-8.1Q198.48-7.75 198.43-7.55L198.43-7.55Q198.18-5.65 197.13-3.78 196.08-1.9 194.56-0.7 193.03 0.5 191.43 0.5L191.43 0.5Q190.13 0.5 189.41-0.45 188.68-1.4 188.68-3L188.68-3Q188.68-3.4 188.78-4.2L188.78-4.2 189.03-5.9 188.93-5.9Q187.08-3.1 184.71-1.3 182.33 0.5 180.58 0.5L180.58 0.5ZM183.43-4.45Q184.53-4.45 186.26-6.4 187.98-8.35 189.48-11.33 190.98-14.3 191.48-17.25L191.48-17.25 191.83-19.2Q190.58-19.95 189.53-19.95L189.53-19.95Q187.93-19.95 186.31-17.98 184.68-16 183.66-12.88 182.63-9.75 182.63-6.5L182.63-6.5Q182.63-5.3 182.81-4.88 182.98-4.45 183.43-4.45L183.43-4.45Z" opacity="1" transform="matrix(1,0,0,1,0,0)" fill="#292626" class="wordmark-text-0" data-fill-palette-color="primary" id="text-0"></path></svg></g></svg></g></svg></g></svg></g><g transform="matrix(1,0,0,1,72.85745696503268,0)"><svg viewBox="0 0 46.28508606993464 59.81665653495441" height="59.81665653495441" width="46.28508606993464"><g><svg xmlns="http://www.w3.org/2000/svg" xmlns:xlink="http://www.w3.org/1999/xlink" version="1.1" x="0" y="0" viewBox="12.982999801635742 1 75.68599700927734 97.81300354003906" enable-background="new 0 0 100 100" xml:space="preserve" height="59.81665653495441" width="46.28508606993464" class="icon-icon-0" data-fill-palette-color="accent" id="icon-0"><g fill="#181414" data-fill-palette-color="accent"><polygon fill-rule="evenodd" clip-rule="evenodd" points="12.983,10.59 30.001,98.813 24.129,39.764 53.15,37.872 53.096,27.989    64.549,1 53.622,18.977  " fill="#181414" data-fill-palette-color="accent"></polygon><polygon fill-rule="evenodd" clip-rule="evenodd" points="59.389,54.548 64.549,1.007 55.809,40.723 36.197,41.768 37.767,62.23    30.001,98.813 42.058,58.914  " fill="#181414" data-fill-palette-color="accent"></polygon><polygon fill-rule="evenodd" clip-rule="evenodd" points="62.8,67.182 63.349,56.729 47.37,60.484 47.338,72.281 30.001,98.813    51.681,71.197  " fill="#181414" data-fill-palette-color="accent"></polygon><polygon fill-rule="evenodd" clip-rule="evenodd" points="65.711,62.394 80.552,57.663 82.061,45.131 66.162,47.226  " fill="#181414" data-fill-palette-color="accent"></polygon><polygon fill-rule="evenodd" clip-rule="evenodd" points="72.07,44.502 83.058,43.085 84.639,32.807 76.56,32.434 64.549,1    72.979,31.967  " fill="#181414" data-fill-palette-color="accent"></polygon><polygon fill-rule="evenodd" clip-rule="evenodd" points="87.413,31.294 88.669,21.788 79.125,19.094 64.549,1 79.032,23.437    78.61,30.437  " fill="#181414" data-fill-palette-color="accent"></polygon></g></svg></g></svg></g><g></g></svg></g></svg></g></svg></g></svg></g><defs></defs></svg><rect width="320" height="360" fill="none" stroke="none" visibility="hidden"></rect></g></svg></g></svg>